<svg width="7360" height="6272" viewBox="0 0 7360 6272" fill="none" xmlns="http://www.w3.org/2000/svg">
<g clip-path="url(#clip0_103_10)">
<path d="M2462.84 2006.65L3467.48 310.464C3486.77 276.342 3516.92 247.522 3554.49 227.285C3592.07 207.049 3635.55 196.209 3680 196C3764.18 196 3848.36 234.024 3893.9 310.464L4898.54 2006.65L7151.62 2279.48C7207.78 2287 7259.18 2310.8 7297.14 2346.87C7335.1 2382.93 7357.3 2429.05 7360 2477.44C7363.21 2509.66 7357.84 2542.08 7344.3 2572.28C7330.76 2602.48 7309.4 2629.69 7281.8 2651.88L5661.22 3967.43L6043.02 5821.59C6078.9 5995.25 5877.42 6131.27 5699.86 6053.66L3680 5169.3L1661.06 6053.66C1639.94 6063 1617.3 6069.61 1593.9 6073.26C1436.58 6096.78 1286.62 5973.69 1317.9 5821.59L1699.7 3967.43L79.5782 2651.88C54.3911 2631.57 34.3709 2607.07 20.7604 2579.9C7.14981 2552.72 0.23941 2523.45 0.458161 2493.9C0.482087 2452.13 14.0104 2411.17 39.5582 2375.52C57.6816 2349.68 82.3836 2327.63 111.842 2311.01C141.3 2294.38 174.761 2283.61 209.758 2279.48L2462.84 2006.65ZM3680 4714.58C3717.13 4714.45 3753.75 4721.98 3786.72 4736.54L5482.28 5478.98L5163.04 3927.84C5155.5 3892.17 5158.36 3855.46 5171.35 3820.95C5184.34 3786.43 5207.08 3755.16 5237.56 3729.88L6574.78 2644.04L4710.86 2418.25C4672.26 2413.28 4635.65 2400.42 4604.17 2380.75C4572.68 2361.09 4547.26 2335.22 4530.08 2305.35L3680.46 871.416L3680 872.592V4714.19V4714.58Z" fill="#FFF500"/>
<path d="M2112 4942L2123.23 4976.55H2159.55L2130.16 4997.9L2141.39 5032.45L2112 5011.1L2082.61 5032.45L2093.84 4997.9L2064.45 4976.55H2100.77L2112 4942Z" fill="#D9D9D9"/>
</g>
<defs>
<clipPath id="clip0_103_10">
<rect width="7360" height="6272" fill="white"/>
</clipPath>
</defs>
</svg>
